<svg width="1920" height="1008" viewBox="0 0 1920 1008" fill="none" xmlns="http://www.w3.org/2000/svg">
<g filter="url(#filter0_d_1_3)">
<path d="M0 0H1920V700C1920 865.685 1785.69 1000 1620 1000H0V0Z" fill="url(#paint0_linear_1_3)"/>
</g>
<mask id="mask0_1_3" style="mask-type:alpha" maskUnits="userSpaceOnUse" x="0" y="0" width="1920" height="1000">
<path d="M0 0H1920V1000H0V0Z" fill="url(#paint1_linear_1_3)"/>
</mask>
<g mask="url(#mask0_1_3)">
<path d="M-87 737C-87 591.749 30.7491 474 176 474C321.251 474 439 591.749 439 737C439 882.251 321.251 1000 176 1000H-87V737Z" fill="white" fill-opacity="0.07"/>
<path d="M2065 485C2065 630.251 1947.25 748 1802 748C1656.75 748 1539 630.251 1539 485C1539 339.749 1656.75 222 1802 222H2065V485Z" fill="white" fill-opacity="0.03"/>
<path d="M-87 208C-87 62.7491 30.7491 -55 176 -55C321.251 -55 439 62.7491 439 208C439 353.251 321.251 471 176 471H-87V208Z" fill="white" fill-opacity="0.03"/>
<path d="M439 0H989V555C989 748.3 832.3 905 639 905H439V0Z" fill="white" fill-opacity="0.03"/>
<path d="M1539 1000L989 1000L989 572C989 378.7 1145.7 222 1339 222H1539L1539 1000Z" fill="white" fill-opacity="0.07"/>
<path d="M1539 -41C1539 -186.251 1656.75 -304 1802 -304C1947.25 -304 2065 -186.251 2065 -41C2065 104.251 1947.25 222 1802 222H1539V-41Z" fill="white" fill-opacity="0.07"/>
</g>
<g opacity="0.4">
<path d="M1651 147.815V149.307H1649.05V151.545H1647.75V149.307H1645.79V147.815H1647.75V145.577H1649.05V147.815H1651Z" fill="white"/>
<path d="M1651 165.721V167.213H1649.05V169.451H1647.75V167.213H1645.79V165.721H1647.75V163.482H1649.05V165.721H1651Z" fill="white"/>
<path d="M1651 183.626V185.118H1649.05V187.356H1647.75V185.118H1645.79V183.626H1647.75V181.388H1649.05V183.626H1651Z" fill="white"/>
<path d="M1651 201.532V203.024H1649.05V205.262H1647.75V203.024H1645.79V201.532H1647.75V199.293H1649.05V201.532H1651Z" fill="white"/>
<path d="M1651 219.437V220.93H1649.05V223.168H1647.75V220.93H1645.79V219.437H1647.75V217.199H1649.05V219.437H1651Z" fill="white"/>
<path d="M1651 237.343V238.835H1649.05V241.073H1647.75V238.835H1645.79V237.343H1647.75V235.104H1649.05V237.343H1651Z" fill="white"/>
<path d="M1651 255.248V256.741H1649.05V258.979H1647.75V256.741H1645.79V255.248H1647.75V253.01H1649.05V255.248H1651Z" fill="white"/>
<path d="M1651 273.154V274.646H1649.05V276.885H1647.75V274.646H1645.79V273.154H1647.75V270.916H1649.05V273.154H1651Z" fill="white"/>
<path d="M1651 291.059V292.552H1649.05V294.79H1647.75V292.552H1645.79V291.059H1647.75V288.821H1649.05V291.059H1651Z" fill="white"/>
<path d="M1651 308.965V310.457H1649.05V312.696H1647.75V310.457H1645.79V308.965H1647.75V306.727H1649.05V308.965H1651Z" fill="white"/>
<path d="M1651 326.871V328.363H1649.05V330.601H1647.75V328.363H1645.79V326.871H1647.75V324.632H1649.05V326.871H1651Z" fill="white"/>
<path d="M1651 344.776V346.268H1649.05V348.507H1647.75V346.268H1645.79V344.776H1647.75V342.538H1649.05V344.776H1651Z" fill="white"/>
<path d="M1651 362.682V364.174H1649.05V366.412H1647.75V364.174H1645.79V362.682H1647.75V360.444H1649.05V362.682H1651Z" fill="white"/>
<path d="M1651 380.588V382.08H1649.05V384.318H1647.75V382.08H1645.79V380.588H1647.75V378.35H1649.05V380.588H1651Z" fill="white"/>
<path d="M1651 398.493V399.985H1649.05V402.223H1647.75V399.985H1645.79V398.493H1647.75V396.255H1649.05V398.493H1651Z" fill="white"/>
<path d="M1651 416.399V417.891H1649.05V420.129H1647.75V417.891H1645.79V416.399H1647.75V414.161H1649.05V416.399H1651Z" fill="white"/>
<path d="M1651 434.304V435.796H1649.05V438.035H1647.75V435.796H1645.79V434.304H1647.75V432.066H1649.05V434.304H1651Z" fill="white"/>
<path d="M1651 452.21V453.702H1649.05V455.94H1647.75V453.702H1645.79V452.21H1647.75V449.972H1649.05V452.21H1651Z" fill="white"/>
<path d="M1651 470.116V471.608H1649.05V473.846H1647.75V471.608H1645.79V470.116H1647.75V467.877H1649.05V470.116H1651Z" fill="white"/>
<path d="M1651 488.021V489.513H1649.05V491.751H1647.75V489.513H1645.79V488.021H1647.75V485.783H1649.05V488.021H1651Z" fill="white"/>
<path d="M1635.38 147.815V149.307H1633.43V151.545H1632.13V149.307H1630.17V147.815H1632.13V145.577H1633.43V147.815H1635.38Z" fill="white"/>
<path d="M1635.38 165.721V167.213H1633.43V169.451H1632.13V167.213H1630.17V165.721H1632.13V163.482H1633.43V165.721H1635.38Z" fill="white"/>
<path d="M1635.38 183.626V185.118H1633.43V187.356H1632.13V185.118H1630.17V183.626H1632.13V181.388H1633.43V183.626H1635.38Z" fill="white"/>
<path d="M1635.38 201.532V203.024H1633.43V205.262H1632.13V203.024H1630.17V201.532H1632.13V199.293H1633.43V201.532H1635.38Z" fill="white"/>
<path d="M1635.38 219.437V220.93H1633.43V223.168H1632.13V220.93H1630.17V219.437H1632.13V217.199H1633.43V219.437H1635.38Z" fill="white"/>
<path d="M1635.38 237.343V238.835H1633.43V241.073H1632.13V238.835H1630.17V237.343H1632.13V235.104H1633.43V237.343H1635.38Z" fill="white"/>
<path d="M1635.38 255.248V256.741H1633.43V258.979H1632.13V256.741H1630.17V255.248H1632.13V253.01H1633.43V255.248H1635.38Z" fill="white"/>
<path d="M1635.38 273.154V274.646H1633.43V276.885H1632.13V274.646H1630.17V273.154H1632.13V270.916H1633.43V273.154H1635.38Z" fill="white"/>
<path d="M1635.38 291.059V292.552H1633.43V294.79H1632.13V292.552H1630.17V291.059H1632.13V288.821H1633.43V291.059H1635.38Z" fill="white"/>
<path d="M1635.38 308.965V310.457H1633.43V312.696H1632.13V310.457H1630.17V308.965H1632.13V306.727H1633.43V308.965H1635.38Z" fill="white"/>
<path d="M1635.38 326.871V328.363H1633.43V330.601H1632.13V328.363H1630.17V326.871H1632.13V324.632H1633.43V326.871H1635.38Z" fill="white"/>
<path d="M1635.38 344.776V346.268H1633.43V348.507H1632.13V346.268H1630.17V344.776H1632.13V342.538H1633.43V344.776H1635.38Z" fill="white"/>
<path d="M1635.38 362.682V364.174H1633.43V366.412H1632.13V364.174H1630.17V362.682H1632.13V360.444H1633.43V362.682H1635.38Z" fill="white"/>
<path d="M1635.38 380.588V382.08H1633.43V384.318H1632.13V382.08H1630.17V380.588H1632.13V378.35H1633.43V380.588H1635.38Z" fill="white"/>
<path d="M1635.38 398.493V399.985H1633.43V402.223H1632.13V399.985H1630.17V398.493H1632.13V396.255H1633.43V398.493H1635.38Z" fill="white"/>
<path d="M1635.38 416.399V417.891H1633.43V420.129H1632.13V417.891H1630.17V416.399H1632.13V414.161H1633.43V416.399H1635.38Z" fill="white"/>
<path d="M1635.38 434.304V435.796H1633.43V438.035H1632.13V435.796H1630.17V434.304H1632.13V432.066H1633.43V434.304H1635.38Z" fill="white"/>
<path d="M1635.38 452.21V453.702H1633.43V455.94H1632.13V453.702H1630.17V452.21H1632.13V449.972H1633.43V452.21H1635.38Z" fill="white"/>
<path d="M1635.38 470.116V471.608H1633.43V473.846H1632.13V471.608H1630.17V470.116H1632.13V467.877H1633.43V470.116H1635.38Z" fill="white"/>
<path d="M1635.38 488.021V489.513H1633.43V491.751H1632.13V489.513H1630.17V488.021H1632.13V485.783H1633.43V488.021H1635.38Z" fill="white"/>
<path d="M1619.76 147.815V149.307H1617.81V151.545H1616.5V149.307H1614.55V147.815H1616.5V145.577H1617.81V147.815H1619.76Z" fill="white"/>
<path d="M1619.76 165.721V167.213H1617.81V169.451H1616.5V167.213H1614.55V165.721H1616.5V163.482H1617.81V165.721H1619.76Z" fill="white"/>
<path d="M1619.76 183.626V185.118H1617.81V187.356H1616.5V185.118H1614.55V183.626H1616.5V181.388H1617.81V183.626H1619.76Z" fill="white"/>
<path d="M1619.76 201.532V203.024H1617.81V205.262H1616.5V203.024H1614.55V201.532H1616.5V199.293H1617.81V201.532H1619.76Z" fill="white"/>
<path d="M1619.76 219.437V220.93H1617.81V223.168H1616.5V220.93H1614.55V219.437H1616.5V217.199H1617.81V219.437H1619.76Z" fill="white"/>
<path d="M1619.76 237.343V238.835H1617.81V241.073H1616.5V238.835H1614.55V237.343H1616.5V235.104H1617.81V237.343H1619.76Z" fill="white"/>
<path d="M1619.76 255.248V256.741H1617.81V258.979H1616.5V256.741H1614.55V255.248H1616.5V253.01H1617.81V255.248H1619.76Z" fill="white"/>
<path d="M1619.76 273.154V274.646H1617.81V276.885H1616.5V274.646H1614.55V273.154H1616.5V270.916H1617.81V273.154H1619.76Z" fill="white"/>
<path d="M1619.76 291.059V292.552H1617.81V294.79H1616.5V292.552H1614.55V291.059H1616.5V288.821H1617.81V291.059H1619.76Z" fill="white"/>
<path d="M1619.76 308.965V310.457H1617.81V312.696H1616.5V310.457H1614.55V308.965H1616.5V306.727H1617.81V308.965H1619.76Z" fill="white"/>
<path d="M1619.76 326.871V328.363H1617.81V330.601H1616.5V328.363H1614.55V326.871H1616.5V324.632H1617.81V326.871H1619.76Z" fill="white"/>
<path d="M1619.76 344.776V346.268H1617.81V348.507H1616.5V346.268H1614.55V344.776H1616.5V342.538H1617.81V344.776H1619.76Z" fill="white"/>
<path d="M1619.76 362.682V364.174H1617.81V366.412H1616.5V364.174H1614.55V362.682H1616.5V360.444H1617.81V362.682H1619.76Z" fill="white"/>
<path d="M1619.76 380.588V382.08H1617.81V384.318H1616.5V382.08H1614.55V380.588H1616.5V378.35H1617.81V380.588H1619.76Z" fill="white"/>
<path d="M1619.76 398.493V399.985H1617.81V402.223H1616.5V399.985H1614.55V398.493H1616.5V396.255H1617.81V398.493H1619.76Z" fill="white"/>
<path d="M1619.76 416.399V417.891H1617.81V420.129H1616.5V417.891H1614.55V416.399H1616.5V414.161H1617.81V416.399H1619.76Z" fill="white"/>
<path d="M1619.76 434.304V435.796H1617.81V438.035H1616.5V435.796H1614.55V434.304H1616.5V432.066H1617.81V434.304H1619.76Z" fill="white"/>
<path d="M1619.76 452.21V453.702H1617.81V455.94H1616.5V453.702H1614.55V452.21H1616.5V449.972H1617.81V452.21H1619.76Z" fill="white"/>
<path d="M1619.76 470.116V471.608H1617.81V473.846H1616.5V471.608H1614.55V470.116H1616.5V467.877H1617.81V470.116H1619.76Z" fill="white"/>
<path d="M1619.76 488.021V489.513H1617.81V491.751H1616.5V489.513H1614.55V488.021H1616.5V485.783H1617.81V488.021H1619.76Z" fill="white"/>
<path d="M1604.14 147.815V149.307H1602.19V151.545H1600.88V149.307H1598.93V147.815H1600.88V145.577H1602.19V147.815H1604.14Z" fill="white"/>
<path d="M1604.14 165.721V167.213H1602.19V169.451H1600.88V167.213H1598.93V165.721H1600.88V163.482H1602.19V165.721H1604.14Z" fill="white"/>
<path d="M1604.14 183.626V185.118H1602.19V187.356H1600.88V185.118H1598.93V183.626H1600.88V181.388H1602.19V183.626H1604.14Z" fill="white"/>
<path d="M1604.14 201.532V203.024H1602.19V205.262H1600.88V203.024H1598.93V201.532H1600.88V199.293H1602.19V201.532H1604.14Z" fill="white"/>
<path d="M1604.14 219.437V220.93H1602.19V223.168H1600.88V220.93H1598.93V219.437H1600.88V217.199H1602.19V219.437H1604.14Z" fill="white"/>
<path d="M1604.14 237.343V238.835H1602.19V241.073H1600.88V238.835H1598.93V237.343H1600.88V235.104H1602.19V237.343H1604.14Z" fill="white"/>
<path d="M1604.14 255.248V256.741H1602.19V258.979H1600.88V256.741H1598.93V255.248H1600.88V253.01H1602.19V255.248H1604.14Z" fill="white"/>
<path d="M1604.14 273.154V274.646H1602.19V276.885H1600.88V274.646H1598.93V273.154H1600.88V270.916H1602.19V273.154H1604.14Z" fill="white"/>
<path d="M1604.14 291.059V292.552H1602.19V294.79H1600.88V292.552H1598.93V291.059H1600.88V288.821H1602.19V291.059H1604.14Z" fill="white"/>
<path d="M1604.14 308.965V310.457H1602.19V312.696H1600.88V310.457H1598.93V308.965H1600.88V306.727H1602.19V308.965H1604.14Z" fill="white"/>
<path d="M1604.14 326.871V328.363H1602.19V330.601H1600.88V328.363H1598.93V326.871H1600.88V324.632H1602.19V326.871H1604.14Z" fill="white"/>
<path d="M1604.14 344.776V346.268H1602.19V348.507H1600.88V346.268H1598.93V344.776H1600.88V342.538H1602.19V344.776H1604.14Z" fill="white"/>
<path d="M1604.14 362.682V364.174H1602.19V366.412H1600.88V364.174H1598.93V362.682H1600.88V360.444H1602.19V362.682H1604.14Z" fill="white"/>
<path d="M1604.14 380.588V382.08H1602.19V384.318H1600.88V382.08H1598.93V380.588H1600.88V378.35H1602.19V380.588H1604.14Z" fill="white"/>
<path d="M1604.14 398.493V399.985H1602.19V402.223H1600.88V399.985H1598.93V398.493H1600.88V396.255H1602.19V398.493H1604.14Z" fill="white"/>
<path d="M1604.14 416.399V417.891H1602.19V420.129H1600.88V417.891H1598.93V416.399H1600.88V414.161H1602.19V416.399H1604.14Z" fill="white"/>
<path d="M1604.14 434.304V435.796H1602.19V438.035H1600.88V435.796H1598.93V434.304H1600.88V432.066H1602.19V434.304H1604.14Z" fill="white"/>
<path d="M1604.14 452.21V453.702H1602.19V455.94H1600.88V453.702H1598.93V452.21H1600.88V449.972H1602.19V452.21H1604.14Z" fill="white"/>
<path d="M1604.14 470.116V471.608H1602.19V473.846H1600.88V471.608H1598.93V470.116H1600.88V467.877H1602.19V470.116H1604.14Z" fill="white"/>
<path d="M1604.14 488.021V489.513H1602.19V491.751H1600.88V489.513H1598.93V488.021H1600.88V485.783H1602.19V488.021H1604.14Z" fill="white"/>
<path d="M1588.52 147.815V149.307H1586.57V151.545H1585.26V149.307H1583.31V147.815H1585.26V145.577H1586.57V147.815H1588.52Z" fill="white"/>
<path d="M1588.52 165.721V167.213H1586.56V169.451H1585.26V167.213H1583.31V165.721H1585.26V163.482H1586.56V165.721H1588.52Z" fill="white"/>
<path d="M1588.52 183.626V185.118H1586.56V187.356H1585.26V185.118H1583.31V183.626H1585.26V181.388H1586.56V183.626H1588.52Z" fill="white"/>
<path d="M1588.52 201.532V203.024H1586.56V205.262H1585.26V203.024H1583.31V201.532H1585.26V199.293H1586.56V201.532H1588.52Z" fill="white"/>
<path d="M1588.52 219.437V220.93H1586.56V223.168H1585.26V220.93H1583.31V219.437H1585.26V217.199H1586.56V219.437H1588.52Z" fill="white"/>
<path d="M1588.52 237.343V238.835H1586.56V241.073H1585.26V238.835H1583.31V237.343H1585.26V235.104H1586.56V237.343H1588.52Z" fill="white"/>
<path d="M1588.52 255.248V256.741H1586.56V258.979H1585.26V256.741H1583.31V255.248H1585.26V253.01H1586.56V255.248H1588.52Z" fill="white"/>
<path d="M1588.52 273.154V274.646H1586.56V276.885H1585.26V274.646H1583.31V273.154H1585.26V270.916H1586.56V273.154H1588.52Z" fill="white"/>
<path d="M1588.52 291.059V292.552H1586.56V294.79H1585.26V292.552H1583.31V291.059H1585.26V288.821H1586.56V291.059H1588.52Z" fill="white"/>
<path d="M1588.52 308.965V310.457H1586.56V312.696H1585.26V310.457H1583.31V308.965H1585.26V306.727H1586.56V308.965H1588.52Z" fill="white"/>
<path d="M1588.52 326.871V328.363H1586.56V330.601H1585.26V328.363H1583.31V326.871H1585.26V324.632H1586.56V326.871H1588.52Z" fill="white"/>
<path d="M1588.52 344.776V346.268H1586.56V348.507H1585.26V346.268H1583.31V344.776H1585.26V342.538H1586.56V344.776H1588.52Z" fill="white"/>
<path d="M1588.52 362.682V364.174H1586.56V366.412H1585.26V364.174H1583.31V362.682H1585.26V360.444H1586.56V362.682H1588.52Z" fill="white"/>
<path d="M1588.52 380.588V382.08H1586.56V384.318H1585.26V382.08H1583.31V380.588H1585.26V378.35H1586.56V380.588H1588.52Z" fill="white"/>
<path d="M1588.52 398.493V399.985H1586.56V402.223H1585.26V399.985H1583.31V398.493H1585.26V396.255H1586.56V398.493H1588.52Z" fill="white"/>
<path d="M1588.52 416.399V417.891H1586.56V420.129H1585.26V417.891H1583.31V416.399H1585.26V414.161H1586.56V416.399H1588.52Z" fill="white"/>
<path d="M1588.52 434.304V435.796H1586.56V438.035H1585.26V435.796H1583.31V434.304H1585.26V432.066H1586.56V434.304H1588.52Z" fill="white"/>
<path d="M1588.52 452.21V453.702H1586.56V455.94H1585.26V453.702H1583.31V452.21H1585.26V449.972H1586.56V452.21H1588.52Z" fill="white"/>
<path d="M1588.52 470.116V471.608H1586.56V473.846H1585.26V471.608H1583.31V470.116H1585.26V467.877H1586.56V470.116H1588.52Z" fill="white"/>
<path d="M1588.52 488.021V489.513H1586.56V491.751H1585.26V489.513H1583.31V488.021H1585.26V485.783H1586.56V488.021H1588.52Z" fill="white"/>
<path d="M1572.9 147.815V149.307H1570.94V151.545H1569.64V149.307H1567.69V147.815H1569.64V145.577H1570.94V147.815H1572.9Z" fill="white"/>
<path d="M1572.9 165.721V167.213H1570.94V169.451H1569.64V167.213H1567.69V165.721H1569.64V163.482H1570.94V165.721H1572.9Z" fill="white"/>
<path d="M1572.9 183.626V185.118H1570.94V187.356H1569.64V185.118H1567.69V183.626H1569.64V181.388H1570.94V183.626H1572.9Z" fill="white"/>
<path d="M1572.9 201.532V203.024H1570.94V205.262H1569.64V203.024H1567.69V201.532H1569.64V199.293H1570.94V201.532H1572.9Z" fill="white"/>
<path d="M1572.9 219.437V220.93H1570.94V223.168H1569.64V220.93H1567.69V219.437H1569.64V217.199H1570.94V219.437H1572.9Z" fill="white"/>
<path d="M1572.9 237.343V238.835H1570.94V241.073H1569.64V238.835H1567.69V237.343H1569.64V235.104H1570.94V237.343H1572.9Z" fill="white"/>
<path d="M1572.9 255.248V256.741H1570.94V258.979H1569.64V256.741H1567.69V255.248H1569.64V253.01H1570.94V255.248H1572.9Z" fill="white"/>
<path d="M1572.9 273.154V274.646H1570.94V276.885H1569.64V274.646H1567.69V273.154H1569.64V270.916H1570.94V273.154H1572.9Z" fill="white"/>
<path d="M1572.9 291.059V292.552H1570.94V294.79H1569.64V292.552H1567.69V291.059H1569.64V288.821H1570.94V291.059H1572.9Z" fill="white"/>
<path d="M1572.9 308.965V310.457H1570.94V312.696H1569.64V310.457H1567.69V308.965H1569.64V306.727H1570.94V308.965H1572.9Z" fill="white"/>
<path d="M1572.9 326.871V328.363H1570.94V330.601H1569.64V328.363H1567.69V326.871H1569.64V324.632H1570.94V326.871H1572.9Z" fill="white"/>
<path d="M1572.9 344.776V346.268H1570.94V348.507H1569.64V346.268H1567.69V344.776H1569.64V342.538H1570.94V344.776H1572.9Z" fill="white"/>
<path d="M1572.9 362.682V364.174H1570.94V366.412H1569.64V364.174H1567.69V362.682H1569.64V360.444H1570.94V362.682H1572.9Z" fill="white"/>
<path d="M1572.9 380.588V382.08H1570.94V384.318H1569.64V382.08H1567.69V380.588H1569.64V378.35H1570.94V380.588H1572.9Z" fill="white"/>
<path d="M1572.9 398.493V399.985H1570.94V402.223H1569.64V399.985H1567.69V398.493H1569.64V396.255H1570.94V398.493H1572.9Z" fill="white"/>
<path d="M1572.9 416.399V417.891H1570.94V420.129H1569.64V417.891H1567.69V416.399H1569.64V414.161H1570.94V416.399H1572.9Z" fill="white"/>
<path d="M1572.9 434.304V435.796H1570.94V438.035H1569.64V435.796H1567.69V434.304H1569.64V432.066H1570.94V434.304H1572.9Z" fill="white"/>
<path d="M1572.9 452.21V453.702H1570.94V455.94H1569.64V453.702H1567.69V452.21H1569.64V449.972H1570.94V452.21H1572.9Z" fill="white"/>
<path d="M1572.9 470.116V471.608H1570.94V473.846H1569.64V471.608H1567.69V470.116H1569.64V467.877H1570.94V470.116H1572.9Z" fill="white"/>
<path d="M1572.9 488.021V489.513H1570.94V491.751H1569.64V489.513H1567.69V488.021H1569.64V485.783H1570.94V488.021H1572.9Z" fill="white"/>
<path d="M1557.28 147.815V149.307H1555.32V151.545H1554.02V149.307H1552.07V147.815H1554.02V145.577H1555.32V147.815H1557.28Z" fill="white"/>
<path d="M1557.28 165.721V167.213H1555.32V169.451H1554.02V167.213H1552.07V165.721H1554.02V163.482H1555.32V165.721H1557.28Z" fill="white"/>
<path d="M1557.28 183.626V185.118H1555.32V187.356H1554.02V185.118H1552.07V183.626H1554.02V181.388H1555.32V183.626H1557.28Z" fill="white"/>
<path d="M1557.28 201.532V203.024H1555.32V205.262H1554.02V203.024H1552.07V201.532H1554.02V199.293H1555.32V201.532H1557.28Z" fill="white"/>
<path d="M1557.28 219.437V220.93H1555.32V223.168H1554.02V220.93H1552.07V219.437H1554.02V217.199H1555.32V219.437H1557.28Z" fill="white"/>
<path d="M1557.28 237.343V238.835H1555.32V241.073H1554.02V238.835H1552.07V237.343H1554.02V235.104H1555.32V237.343H1557.28Z" fill="white"/>
<path d="M1557.28 255.248V256.741H1555.32V258.979H1554.02V256.741H1552.07V255.248H1554.02V253.01H1555.32V255.248H1557.28Z" fill="white"/>
<path d="M1557.28 273.154V274.646H1555.32V276.885H1554.02V274.646H1552.07V273.154H1554.02V270.916H1555.32V273.154H1557.28Z" fill="white"/>
<path d="M1557.28 291.059V292.552H1555.32V294.79H1554.02V292.552H1552.07V291.059H1554.02V288.821H1555.32V291.059H1557.28Z" fill="white"/>
<path d="M1557.28 308.965V310.457H1555.32V312.696H1554.02V310.457H1552.07V308.965H1554.02V306.727H1555.32V308.965H1557.28Z" fill="white"/>
<path d="M1557.28 326.871V328.363H1555.32V330.601H1554.02V328.363H1552.07V326.871H1554.02V324.632H1555.32V326.871H1557.28Z" fill="white"/>
<path d="M1557.28 344.776V346.268H1555.32V348.507H1554.02V346.268H1552.07V344.776H1554.02V342.538H1555.32V344.776H1557.28Z" fill="white"/>
<path d="M1557.28 362.682V364.174H1555.32V366.412H1554.02V364.174H1552.07V362.682H1554.02V360.444H1555.32V362.682H1557.28Z" fill="white"/>
<path d="M1557.28 380.588V382.08H1555.32V384.318H1554.02V382.08H1552.07V380.588H1554.02V378.35H1555.32V380.588H1557.28Z" fill="white"/>
<path d="M1557.28 398.493V399.985H1555.32V402.223H1554.02V399.985H1552.07V398.493H1554.02V396.255H1555.32V398.493H1557.28Z" fill="white"/>
<path d="M1557.28 416.399V417.891H1555.32V420.129H1554.02V417.891H1552.07V416.399H1554.02V414.161H1555.32V416.399H1557.28Z" fill="white"/>
<path d="M1557.28 434.304V435.796H1555.32V438.035H1554.02V435.796H1552.07V434.304H1554.02V432.066H1555.32V434.304H1557.28Z" fill="white"/>
<path d="M1557.28 452.21V453.702H1555.32V455.94H1554.02V453.702H1552.07V452.21H1554.02V449.972H1555.32V452.21H1557.28Z" fill="white"/>
<path d="M1557.28 470.116V471.608H1555.32V473.846H1554.02V471.608H1552.07V470.116H1554.02V467.877H1555.32V470.116H1557.28Z" fill="white"/>
<path d="M1557.28 488.021V489.513H1555.32V491.751H1554.02V489.513H1552.07V488.021H1554.02V485.783H1555.32V488.021H1557.28Z" fill="white"/>
<path d="M1541.66 147.815V149.307H1539.7V151.545H1538.4V149.307H1536.45V147.815H1538.4V145.577H1539.7V147.815H1541.66Z" fill="white"/>
<path d="M1541.66 165.721V167.213H1539.7V169.451H1538.4V167.213H1536.45V165.721H1538.4V163.482H1539.7V165.721H1541.66Z" fill="white"/>
<path d="M1541.66 183.626V185.118H1539.7V187.356H1538.4V185.118H1536.45V183.626H1538.4V181.388H1539.7V183.626H1541.66Z" fill="white"/>
<path d="M1541.66 201.532V203.024H1539.7V205.262H1538.4V203.024H1536.45V201.532H1538.4V199.293H1539.7V201.532H1541.66Z" fill="white"/>
<path d="M1541.66 219.437V220.93H1539.7V223.168H1538.4V220.93H1536.45V219.437H1538.4V217.199H1539.7V219.437H1541.66Z" fill="white"/>
<path d="M1541.66 237.343V238.835H1539.7V241.073H1538.4V238.835H1536.45V237.343H1538.4V235.104H1539.7V237.343H1541.66Z" fill="white"/>
<path d="M1541.66 255.248V256.741H1539.7V258.979H1538.4V256.741H1536.45V255.248H1538.4V253.01H1539.7V255.248H1541.66Z" fill="white"/>
<path d="M1541.66 273.154V274.646H1539.7V276.885H1538.4V274.646H1536.45V273.154H1538.4V270.916H1539.7V273.154H1541.66Z" fill="white"/>
<path d="M1541.66 291.059V292.552H1539.7V294.79H1538.4V292.552H1536.45V291.059H1538.4V288.821H1539.7V291.059H1541.66Z" fill="white"/>
<path d="M1541.66 308.965V310.457H1539.7V312.696H1538.4V310.457H1536.45V308.965H1538.4V306.727H1539.7V308.965H1541.66Z" fill="white"/>
<path d="M1541.66 326.871V328.363H1539.7V330.601H1538.4V328.363H1536.45V326.871H1538.4V324.632H1539.7V326.871H1541.66Z" fill="white"/>
<path d="M1541.66 344.776V346.268H1539.7V348.507H1538.4V346.268H1536.45V344.776H1538.4V342.538H1539.7V344.776H1541.66Z" fill="white"/>
<path d="M1541.66 362.682V364.174H1539.7V366.412H1538.4V364.174H1536.45V362.682H1538.4V360.444H1539.7V362.682H1541.66Z" fill="white"/>
<path d="M1541.66 380.588V382.08H1539.7V384.318H1538.4V382.08H1536.45V380.588H1538.4V378.35H1539.7V380.588H1541.66Z" fill="white"/>
<path d="M1541.66 398.493V399.985H1539.7V402.223H1538.4V399.985H1536.45V398.493H1538.4V396.255H1539.7V398.493H1541.66Z" fill="white"/>
<path d="M1541.66 416.399V417.891H1539.7V420.129H1538.4V417.891H1536.45V416.399H1538.4V414.161H1539.7V416.399H1541.66Z" fill="white"/>
<path d="M1541.66 434.304V435.796H1539.7V438.035H1538.4V435.796H1536.45V434.304H1538.4V432.066H1539.7V434.304H1541.66Z" fill="white"/>
<path d="M1541.66 452.21V453.702H1539.7V455.94H1538.4V453.702H1536.45V452.21H1538.4V449.972H1539.7V452.21H1541.66Z" fill="white"/>
<path d="M1541.66 470.116V471.608H1539.7V473.846H1538.4V471.608H1536.45V470.116H1538.4V467.877H1539.7V470.116H1541.66Z" fill="white"/>
<path d="M1541.66 488.021V489.513H1539.7V491.751H1538.4V489.513H1536.45V488.021H1538.4V485.783H1539.7V488.021H1541.66Z" fill="white"/>
<path d="M1526.03 147.815V149.307H1524.08V151.545H1522.78V149.307H1520.83V147.815H1522.78V145.577H1524.08V147.815H1526.03Z" fill="white"/>
<path d="M1526.03 165.721V167.213H1524.08V169.451H1522.78V167.213H1520.83V165.721H1522.78V163.482H1524.08V165.721H1526.03Z" fill="white"/>
<path d="M1526.03 183.626V185.118H1524.08V187.356H1522.78V185.118H1520.83V183.626H1522.78V181.388H1524.08V183.626H1526.03Z" fill="white"/>
<path d="M1526.03 201.532V203.024H1524.08V205.262H1522.78V203.024H1520.83V201.532H1522.78V199.293H1524.08V201.532H1526.03Z" fill="white"/>
<path d="M1526.03 219.437V220.93H1524.08V223.168H1522.78V220.93H1520.83V219.437H1522.78V217.199H1524.08V219.437H1526.03Z" fill="white"/>
<path d="M1526.03 237.343V238.835H1524.08V241.073H1522.78V238.835H1520.83V237.343H1522.78V235.104H1524.08V237.343H1526.03Z" fill="white"/>
<path d="M1526.03 255.248V256.741H1524.08V258.979H1522.78V256.741H1520.83V255.248H1522.78V253.01H1524.08V255.248H1526.03Z" fill="white"/>
<path d="M1526.03 273.154V274.646H1524.08V276.885H1522.78V274.646H1520.83V273.154H1522.78V270.916H1524.08V273.154H1526.03Z" fill="white"/>
<path d="M1526.03 291.059V292.552H1524.08V294.79H1522.78V292.552H1520.83V291.059H1522.78V288.821H1524.08V291.059H1526.03Z" fill="white"/>
<path d="M1526.03 308.965V310.457H1524.08V312.696H1522.78V310.457H1520.83V308.965H1522.78V306.727H1524.08V308.965H1526.03Z" fill="white"/>
<path d="M1526.03 326.871V328.363H1524.08V330.601H1522.78V328.363H1520.83V326.871H1522.78V324.632H1524.08V326.871H1526.03Z" fill="white"/>
<path d="M1526.03 344.776V346.268H1524.08V348.507H1522.78V346.268H1520.83V344.776H1522.78V342.538H1524.08V344.776H1526.03Z" fill="white"/>
<path d="M1526.03 362.682V364.174H1524.08V366.412H1522.78V364.174H1520.83V362.682H1522.78V360.444H1524.08V362.682H1526.03Z" fill="white"/>
<path d="M1526.03 380.588V382.08H1524.08V384.318H1522.78V382.08H1520.83V380.588H1522.78V378.35H1524.08V380.588H1526.03Z" fill="white"/>
<path d="M1526.03 398.493V399.985H1524.08V402.223H1522.78V399.985H1520.83V398.493H1522.78V396.255H1524.08V398.493H1526.03Z" fill="white"/>
<path d="M1526.03 416.399V417.891H1524.08V420.129H1522.78V417.891H1520.83V416.399H1522.78V414.161H1524.08V416.399H1526.03Z" fill="white"/>
<path d="M1526.03 434.304V435.796H1524.08V438.035H1522.78V435.796H1520.83V434.304H1522.78V432.066H1524.08V434.304H1526.03Z" fill="white"/>
<path d="M1526.03 452.21V453.702H1524.08V455.94H1522.78V453.702H1520.83V452.21H1522.78V449.972H1524.08V452.21H1526.03Z" fill="white"/>
<path d="M1526.03 470.116V471.608H1524.08V473.846H1522.78V471.608H1520.83V470.116H1522.78V467.877H1524.08V470.116H1526.03Z" fill="white"/>
<path d="M1526.03 488.021V489.513H1524.08V491.751H1522.78V489.513H1520.83V488.021H1522.78V485.783H1524.08V488.021H1526.03Z" fill="white"/>
<path d="M1510.41 147.815V149.307H1508.46V151.545H1507.16V149.307H1505.21V147.815H1507.16V145.577H1508.46V147.815H1510.41Z" fill="white"/>
<path d="M1510.41 165.721V167.213H1508.46V169.451H1507.16V167.213H1505.21V165.721H1507.16V163.482H1508.46V165.721H1510.41Z" fill="white"/>
<path d="M1510.41 183.626V185.118H1508.46V187.356H1507.16V185.118H1505.21V183.626H1507.16V181.388H1508.46V183.626H1510.41Z" fill="white"/>
<path d="M1510.41 201.532V203.024H1508.46V205.262H1507.16V203.024H1505.21V201.532H1507.16V199.293H1508.46V201.532H1510.41Z" fill="white"/>
<path d="M1510.41 219.437V220.93H1508.46V223.168H1507.16V220.93H1505.21V219.437H1507.16V217.199H1508.46V219.437H1510.41Z" fill="white"/>
<path d="M1510.41 237.343V238.835H1508.46V241.073H1507.16V238.835H1505.21V237.343H1507.16V235.104H1508.46V237.343H1510.41Z" fill="white"/>
<path d="M1510.41 255.248V256.741H1508.46V258.979H1507.16V256.741H1505.21V255.248H1507.16V253.01H1508.46V255.248H1510.41Z" fill="white"/>
<path d="M1510.41 273.154V274.646H1508.46V276.885H1507.16V274.646H1505.21V273.154H1507.16V270.916H1508.46V273.154H1510.41Z" fill="white"/>
<path d="M1510.41 291.059V292.552H1508.46V294.79H1507.16V292.552H1505.21V291.059H1507.16V288.821H1508.46V291.059H1510.41Z" fill="white"/>
<path d="M1510.41 308.965V310.457H1508.46V312.696H1507.16V310.457H1505.21V308.965H1507.16V306.727H1508.46V308.965H1510.41Z" fill="white"/>
<path d="M1510.41 326.871V328.363H1508.46V330.601H1507.16V328.363H1505.21V326.871H1507.16V324.632H1508.46V326.871H1510.41Z" fill="white"/>
<path d="M1510.41 344.776V346.268H1508.46V348.507H1507.16V346.268H1505.21V344.776H1507.16V342.538H1508.46V344.776H1510.41Z" fill="white"/>
<path d="M1510.41 362.682V364.174H1508.46V366.412H1507.16V364.174H1505.21V362.682H1507.16V360.444H1508.46V362.682H1510.41Z" fill="white"/>
<path d="M1510.41 380.588V382.08H1508.46V384.318H1507.16V382.08H1505.21V380.588H1507.16V378.35H1508.46V380.588H1510.41Z" fill="white"/>
<path d="M1510.41 398.493V399.985H1508.46V402.223H1507.16V399.985H1505.21V398.493H1507.16V396.255H1508.46V398.493H1510.41Z" fill="white"/>
<path d="M1510.41 416.399V417.891H1508.46V420.129H1507.16V417.891H1505.21V416.399H1507.16V414.161H1508.46V416.399H1510.41Z" fill="white"/>
<path d="M1510.41 434.304V435.796H1508.46V438.035H1507.16V435.796H1505.21V434.304H1507.16V432.066H1508.46V434.304H1510.41Z" fill="white"/>
<path d="M1510.41 452.21V453.702H1508.46V455.94H1507.16V453.702H1505.21V452.21H1507.16V449.972H1508.46V452.21H1510.41Z" fill="white"/>
<path d="M1510.41 470.116V471.608H1508.46V473.846H1507.16V471.608H1505.21V470.116H1507.16V467.877H1508.46V470.116H1510.41Z" fill="white"/>
<path d="M1510.41 488.021V489.513H1508.46V491.751H1507.16V489.513H1505.21V488.021H1507.16V485.783H1508.46V488.021H1510.41Z" fill="white"/>
<path d="M1494.79 147.815V149.307H1492.84V151.545H1491.54V149.307H1489.59V147.815H1491.54V145.577H1492.84V147.815H1494.79Z" fill="white"/>
<path d="M1494.79 165.721V167.213H1492.84V169.451H1491.54V167.213H1489.59V165.721H1491.54V163.482H1492.84V165.721H1494.79Z" fill="white"/>
<path d="M1494.79 183.626V185.118H1492.84V187.356H1491.54V185.118H1489.59V183.626H1491.54V181.388H1492.84V183.626H1494.79Z" fill="white"/>
<path d="M1494.79 201.532V203.024H1492.84V205.262H1491.54V203.024H1489.59V201.532H1491.54V199.293H1492.84V201.532H1494.79Z" fill="white"/>
<path d="M1494.79 219.437V220.93H1492.84V223.168H1491.54V220.93H1489.59V219.437H1491.54V217.199H1492.84V219.437H1494.79Z" fill="white"/>
<path d="M1494.79 237.343V238.835H1492.84V241.073H1491.54V238.835H1489.59V237.343H1491.54V235.104H1492.84V237.343H1494.79Z" fill="white"/>
<path d="M1494.79 255.248V256.741H1492.84V258.979H1491.54V256.741H1489.59V255.248H1491.54V253.01H1492.84V255.248H1494.79Z" fill="white"/>
<path d="M1494.79 273.154V274.646H1492.84V276.885H1491.54V274.646H1489.59V273.154H1491.54V270.916H1492.84V273.154H1494.79Z" fill="white"/>
<path d="M1494.79 291.059V292.552H1492.84V294.79H1491.54V292.552H1489.59V291.059H1491.54V288.821H1492.84V291.059H1494.79Z" fill="white"/>
<path d="M1494.79 308.965V310.457H1492.84V312.696H1491.54V310.457H1489.59V308.965H1491.54V306.727H1492.84V308.965H1494.79Z" fill="white"/>
<path d="M1494.79 326.871V328.363H1492.84V330.601H1491.54V328.363H1489.59V326.871H1491.54V324.632H1492.84V326.871H1494.79Z" fill="white"/>
<path d="M1494.79 344.776V346.268H1492.84V348.507H1491.54V346.268H1489.59V344.776H1491.54V342.538H1492.84V344.776H1494.79Z" fill="white"/>
<path d="M1494.79 362.682V364.174H1492.84V366.412H1491.54V364.174H1489.59V362.682H1491.54V360.444H1492.84V362.682H1494.79Z" fill="white"/>
<path d="M1494.79 380.588V382.08H1492.84V384.318H1491.54V382.08H1489.59V380.588H1491.54V378.35H1492.84V380.588H1494.79Z" fill="white"/>
<path d="M1494.79 398.493V399.985H1492.84V402.223H1491.54V399.985H1489.59V398.493H1491.54V396.255H1492.84V398.493H1494.79Z" fill="white"/>
<path d="M1494.79 416.399V417.891H1492.84V420.129H1491.54V417.891H1489.59V416.399H1491.54V414.161H1492.84V416.399H1494.79Z" fill="white"/>
<path d="M1494.79 434.304V435.796H1492.84V438.035H1491.54V435.796H1489.59V434.304H1491.54V432.066H1492.84V434.304H1494.79Z" fill="white"/>
<path d="M1494.79 452.21V453.702H1492.84V455.94H1491.54V453.702H1489.59V452.21H1491.54V449.972H1492.84V452.21H1494.79Z" fill="white"/>
<path d="M1494.79 470.116V471.608H1492.84V473.846H1491.54V471.608H1489.59V470.116H1491.54V467.877H1492.84V470.116H1494.79Z" fill="white"/>
<path d="M1494.79 488.021V489.513H1492.84V491.751H1491.54V489.513H1489.59V488.021H1491.54V485.783H1492.84V488.021H1494.79Z" fill="white"/>
<path d="M1479.17 147.815V149.307H1477.22V151.545H1475.92V149.307H1473.97V147.815H1475.92V145.577H1477.22V147.815H1479.17Z" fill="white"/>
<path d="M1479.17 165.721V167.213H1477.22V169.451H1475.92V167.213H1473.97V165.721H1475.92V163.482H1477.22V165.721H1479.17Z" fill="white"/>
<path d="M1479.17 183.626V185.118H1477.22V187.356H1475.92V185.118H1473.97V183.626H1475.92V181.388H1477.22V183.626H1479.17Z" fill="white"/>
<path d="M1479.17 201.532V203.024H1477.22V205.262H1475.92V203.024H1473.97V201.532H1475.92V199.293H1477.22V201.532H1479.17Z" fill="white"/>
<path d="M1479.17 219.437V220.93H1477.22V223.168H1475.92V220.93H1473.97V219.437H1475.92V217.199H1477.22V219.437H1479.17Z" fill="white"/>
<path d="M1479.17 237.343V238.835H1477.22V241.073H1475.92V238.835H1473.97V237.343H1475.92V235.104H1477.22V237.343H1479.17Z" fill="white"/>
<path d="M1479.17 255.248V256.741H1477.22V258.979H1475.92V256.741H1473.97V255.248H1475.92V253.01H1477.22V255.248H1479.17Z" fill="white"/>
<path d="M1479.17 273.154V274.646H1477.22V276.885H1475.92V274.646H1473.97V273.154H1475.92V270.916H1477.22V273.154H1479.17Z" fill="white"/>
<path d="M1479.17 291.059V292.552H1477.22V294.79H1475.92V292.552H1473.97V291.059H1475.92V288.821H1477.22V291.059H1479.17Z" fill="white"/>
<path d="M1479.17 308.965V310.457H1477.22V312.696H1475.92V310.457H1473.97V308.965H1475.92V306.727H1477.22V308.965H1479.17Z" fill="white"/>
<path d="M1479.17 326.871V328.363H1477.22V330.601H1475.92V328.363H1473.97V326.871H1475.92V324.632H1477.22V326.871H1479.17Z" fill="white"/>
<path d="M1479.17 344.776V346.268H1477.22V348.507H1475.92V346.268H1473.97V344.776H1475.92V342.538H1477.22V344.776H1479.17Z" fill="white"/>
<path d="M1479.17 362.682V364.174H1477.22V366.412H1475.92V364.174H1473.97V362.682H1475.92V360.444H1477.22V362.682H1479.17Z" fill="white"/>
<path d="M1479.17 380.588V382.08H1477.22V384.318H1475.92V382.08H1473.97V380.588H1475.92V378.35H1477.22V380.588H1479.17Z" fill="white"/>
<path d="M1479.17 398.493V399.985H1477.22V402.223H1475.92V399.985H1473.97V398.493H1475.92V396.255H1477.22V398.493H1479.17Z" fill="white"/>
<path d="M1479.17 416.399V417.891H1477.22V420.129H1475.92V417.891H1473.97V416.399H1475.92V414.161H1477.22V416.399H1479.17Z" fill="white"/>
<path d="M1479.17 434.304V435.796H1477.22V438.035H1475.92V435.796H1473.97V434.304H1475.92V432.066H1477.22V434.304H1479.17Z" fill="white"/>
<path d="M1479.17 452.21V453.702H1477.22V455.94H1475.92V453.702H1473.97V452.21H1475.92V449.972H1477.22V452.21H1479.17Z" fill="white"/>
<path d="M1479.17 470.116V471.608H1477.22V473.846H1475.92V471.608H1473.97V470.116H1475.92V467.877H1477.22V470.116H1479.17Z" fill="white"/>
<path d="M1479.17 488.021V489.513H1477.22V491.751H1475.92V489.513H1473.97V488.021H1475.92V485.783H1477.22V488.021H1479.17Z" fill="white"/>
<path d="M1463.55 147.815V149.307H1461.6V151.545H1460.3V149.307H1458.34V147.815H1460.3V145.577H1461.6V147.815H1463.55Z" fill="white"/>
<path d="M1463.55 165.721V167.213H1461.6V169.451H1460.3V167.213H1458.34V165.721H1460.3V163.482H1461.6V165.721H1463.55Z" fill="white"/>
<path d="M1463.55 183.626V185.118H1461.6V187.356H1460.3V185.118H1458.34V183.626H1460.3V181.388H1461.6V183.626H1463.55Z" fill="white"/>
<path d="M1463.55 201.532V203.024H1461.6V205.262H1460.3V203.024H1458.34V201.532H1460.3V199.293H1461.6V201.532H1463.55Z" fill="white"/>
<path d="M1463.55 219.437V220.93H1461.6V223.168H1460.3V220.93H1458.34V219.437H1460.3V217.199H1461.6V219.437H1463.55Z" fill="white"/>
<path d="M1463.55 237.343V238.835H1461.6V241.073H1460.3V238.835H1458.34V237.343H1460.3V235.104H1461.6V237.343H1463.55Z" fill="white"/>
<path d="M1463.55 255.248V256.741H1461.6V258.979H1460.3V256.741H1458.34V255.248H1460.3V253.01H1461.6V255.248H1463.55Z" fill="white"/>
<path d="M1463.55 273.154V274.646H1461.6V276.885H1460.3V274.646H1458.34V273.154H1460.3V270.916H1461.6V273.154H1463.55Z" fill="white"/>
<path d="M1463.55 291.059V292.552H1461.6V294.79H1460.3V292.552H1458.34V291.059H1460.3V288.821H1461.6V291.059H1463.55Z" fill="white"/>
<path d="M1463.55 308.965V310.457H1461.6V312.696H1460.3V310.457H1458.34V308.965H1460.3V306.727H1461.6V308.965H1463.55Z" fill="white"/>
<path d="M1463.55 326.871V328.363H1461.6V330.601H1460.3V328.363H1458.34V326.871H1460.3V324.632H1461.6V326.871H1463.55Z" fill="white"/>
<path d="M1463.55 344.776V346.268H1461.6V348.507H1460.3V346.268H1458.34V344.776H1460.3V342.538H1461.6V344.776H1463.55Z" fill="white"/>
<path d="M1463.55 362.682V364.174H1461.6V366.412H1460.3V364.174H1458.34V362.682H1460.3V360.444H1461.6V362.682H1463.55Z" fill="white"/>
<path d="M1463.55 380.588V382.08H1461.6V384.318H1460.3V382.08H1458.34V380.588H1460.3V378.35H1461.6V380.588H1463.55Z" fill="white"/>
<path d="M1463.55 398.493V399.985H1461.6V402.223H1460.3V399.985H1458.34V398.493H1460.3V396.255H1461.6V398.493H1463.55Z" fill="white"/>
<path d="M1463.55 416.399V417.891H1461.6V420.129H1460.3V417.891H1458.34V416.399H1460.3V414.161H1461.6V416.399H1463.55Z" fill="white"/>
<path d="M1463.55 434.304V435.796H1461.6V438.035H1460.3V435.796H1458.34V434.304H1460.3V432.066H1461.6V434.304H1463.55Z" fill="white"/>
<path d="M1463.55 452.21V453.702H1461.6V455.94H1460.3V453.702H1458.34V452.21H1460.3V449.972H1461.6V452.21H1463.55Z" fill="white"/>
<path d="M1463.55 470.116V471.608H1461.6V473.846H1460.3V471.608H1458.34V470.116H1460.3V467.877H1461.6V470.116H1463.55Z" fill="white"/>
<path d="M1463.55 488.021V489.513H1461.6V491.751H1460.3V489.513H1458.34V488.021H1460.3V485.783H1461.6V488.021H1463.55Z" fill="white"/>
<path d="M1447.93 147.815V149.307H1445.98V151.545H1444.68V149.307H1442.72V147.815H1444.68V145.577H1445.98V147.815H1447.93Z" fill="white"/>
<path d="M1447.93 165.721V167.213H1445.98V169.451H1444.68V167.213H1442.72V165.721H1444.68V163.482H1445.98V165.721H1447.93Z" fill="white"/>
<path d="M1447.93 183.626V185.118H1445.98V187.356H1444.68V185.118H1442.72V183.626H1444.68V181.388H1445.98V183.626H1447.93Z" fill="white"/>
<path d="M1447.93 201.532V203.024H1445.98V205.262H1444.68V203.024H1442.72V201.532H1444.68V199.293H1445.98V201.532H1447.93Z" fill="white"/>
<path d="M1447.93 219.437V220.93H1445.98V223.168H1444.68V220.93H1442.72V219.437H1444.68V217.199H1445.98V219.437H1447.93Z" fill="white"/>
<path d="M1447.93 237.343V238.835H1445.98V241.073H1444.68V238.835H1442.72V237.343H1444.68V235.104H1445.98V237.343H1447.93Z" fill="white"/>
<path d="M1447.93 255.248V256.741H1445.98V258.979H1444.68V256.741H1442.72V255.248H1444.68V253.01H1445.98V255.248H1447.93Z" fill="white"/>
<path d="M1447.93 273.154V274.646H1445.98V276.885H1444.68V274.646H1442.72V273.154H1444.68V270.916H1445.98V273.154H1447.93Z" fill="white"/>
<path d="M1447.93 291.059V292.552H1445.98V294.79H1444.68V292.552H1442.72V291.059H1444.68V288.821H1445.98V291.059H1447.93Z" fill="white"/>
<path d="M1447.93 308.965V310.457H1445.98V312.696H1444.68V310.457H1442.72V308.965H1444.68V306.727H1445.98V308.965H1447.93Z" fill="white"/>
<path d="M1447.93 326.871V328.363H1445.98V330.601H1444.68V328.363H1442.72V326.871H1444.68V324.632H1445.98V326.871H1447.93Z" fill="white"/>
<path d="M1447.93 344.776V346.268H1445.98V348.507H1444.68V346.268H1442.72V344.776H1444.68V342.538H1445.98V344.776H1447.93Z" fill="white"/>
<path d="M1447.93 362.682V364.174H1445.98V366.412H1444.68V364.174H1442.72V362.682H1444.68V360.444H1445.98V362.682H1447.93Z" fill="white"/>
<path d="M1447.93 380.588V382.08H1445.98V384.318H1444.68V382.08H1442.72V380.588H1444.68V378.35H1445.98V380.588H1447.93Z" fill="white"/>
<path d="M1447.93 398.493V399.985H1445.98V402.223H1444.68V399.985H1442.72V398.493H1444.68V396.255H1445.98V398.493H1447.93Z" fill="white"/>
<path d="M1447.93 416.399V417.891H1445.98V420.129H1444.68V417.891H1442.72V416.399H1444.68V414.161H1445.98V416.399H1447.93Z" fill="white"/>
<path d="M1447.93 434.304V435.796H1445.98V438.035H1444.68V435.796H1442.72V434.304H1444.68V432.066H1445.98V434.304H1447.93Z" fill="white"/>
<path d="M1447.93 452.21V453.702H1445.98V455.94H1444.68V453.702H1442.72V452.21H1444.68V449.972H1445.98V452.21H1447.93Z" fill="white"/>
<path d="M1447.93 470.116V471.608H1445.98V473.846H1444.68V471.608H1442.72V470.116H1444.68V467.877H1445.98V470.116H1447.93Z" fill="white"/>
<path d="M1447.93 488.021V489.513H1445.98V491.751H1444.68V489.513H1442.72V488.021H1444.68V485.783H1445.98V488.021H1447.93Z" fill="white"/>
<path d="M1432.31 147.815V149.307H1430.36V151.545H1429.06V149.307H1427.1V147.815H1429.06V145.577H1430.36V147.815H1432.31Z" fill="white"/>
<path d="M1432.31 165.721V167.213H1430.36V169.451H1429.06V167.213H1427.1V165.721H1429.06V163.482H1430.36V165.721H1432.31Z" fill="white"/>
<path d="M1432.31 183.626V185.118H1430.36V187.356H1429.06V185.118H1427.1V183.626H1429.06V181.388H1430.36V183.626H1432.31Z" fill="white"/>
<path d="M1432.31 201.532V203.024H1430.36V205.262H1429.06V203.024H1427.1V201.532H1429.06V199.293H1430.36V201.532H1432.31Z" fill="white"/>
<path d="M1432.31 219.437V220.93H1430.36V223.168H1429.06V220.93H1427.1V219.437H1429.06V217.199H1430.36V219.437H1432.31Z" fill="white"/>
<path d="M1432.31 237.343V238.835H1430.36V241.073H1429.06V238.835H1427.1V237.343H1429.06V235.104H1430.36V237.343H1432.31Z" fill="white"/>
<path d="M1432.31 255.248V256.741H1430.36V258.979H1429.06V256.741H1427.1V255.248H1429.06V253.01H1430.36V255.248H1432.31Z" fill="white"/>
<path d="M1432.31 273.154V274.646H1430.36V276.885H1429.06V274.646H1427.1V273.154H1429.06V270.916H1430.36V273.154H1432.31Z" fill="white"/>
<path d="M1432.31 291.059V292.552H1430.36V294.79H1429.06V292.552H1427.1V291.059H1429.06V288.821H1430.36V291.059H1432.31Z" fill="white"/>
<path d="M1432.31 308.965V310.457H1430.36V312.696H1429.06V310.457H1427.1V308.965H1429.06V306.727H1430.36V308.965H1432.31Z" fill="white"/>
<path d="M1432.31 326.871V328.363H1430.36V330.601H1429.06V328.363H1427.1V326.871H1429.06V324.632H1430.36V326.871H1432.31Z" fill="white"/>
<path d="M1432.31 344.776V346.268H1430.36V348.507H1429.06V346.268H1427.1V344.776H1429.06V342.538H1430.36V344.776H1432.31Z" fill="white"/>
<path d="M1432.31 362.682V364.174H1430.36V366.412H1429.06V364.174H1427.1V362.682H1429.06V360.444H1430.36V362.682H1432.31Z" fill="white"/>
<path d="M1432.31 380.588V382.08H1430.36V384.318H1429.06V382.08H1427.1V380.588H1429.06V378.35H1430.36V380.588H1432.31Z" fill="white"/>
<path d="M1432.31 398.493V399.985H1430.36V402.223H1429.06V399.985H1427.1V398.493H1429.06V396.255H1430.36V398.493H1432.31Z" fill="white"/>
<path d="M1432.31 416.399V417.891H1430.36V420.129H1429.06V417.891H1427.1V416.399H1429.06V414.161H1430.36V416.399H1432.31Z" fill="white"/>
<path d="M1432.31 434.304V435.796H1430.36V438.035H1429.06V435.796H1427.1V434.304H1429.06V432.066H1430.36V434.304H1432.31Z" fill="white"/>
<path d="M1432.31 452.21V453.702H1430.36V455.94H1429.06V453.702H1427.1V452.21H1429.06V449.972H1430.36V452.21H1432.31Z" fill="white"/>
<path d="M1432.31 470.116V471.608H1430.36V473.846H1429.06V471.608H1427.1V470.116H1429.06V467.877H1430.36V470.116H1432.31Z" fill="white"/>
<path d="M1432.31 488.021V489.513H1430.36V491.751H1429.06V489.513H1427.1V488.021H1429.06V485.783H1430.36V488.021H1432.31Z" fill="white"/>
<path d="M1416.69 147.815V149.307H1414.74V151.545H1413.44V149.307H1411.48V147.815H1413.44V145.577H1414.74V147.815H1416.69Z" fill="white"/>
<path d="M1416.69 165.721V167.213H1414.74V169.451H1413.44V167.213H1411.48V165.721H1413.44V163.482H1414.74V165.721H1416.69Z" fill="white"/>
<path d="M1416.69 183.626V185.118H1414.74V187.356H1413.44V185.118H1411.48V183.626H1413.44V181.388H1414.74V183.626H1416.69Z" fill="white"/>
<path d="M1416.69 201.532V203.024H1414.74V205.262H1413.44V203.024H1411.48V201.532H1413.44V199.293H1414.74V201.532H1416.69Z" fill="white"/>
<path d="M1416.69 219.437V220.93H1414.74V223.168H1413.44V220.93H1411.48V219.437H1413.44V217.199H1414.74V219.437H1416.69Z" fill="white"/>
<path d="M1416.69 237.343V238.835H1414.74V241.073H1413.44V238.835H1411.48V237.343H1413.44V235.104H1414.74V237.343H1416.69Z" fill="white"/>
<path d="M1416.69 255.248V256.741H1414.74V258.979H1413.44V256.741H1411.48V255.248H1413.44V253.01H1414.74V255.248H1416.69Z" fill="white"/>
<path d="M1416.69 273.154V274.646H1414.74V276.885H1413.44V274.646H1411.48V273.154H1413.44V270.916H1414.74V273.154H1416.69Z" fill="white"/>
<path d="M1416.69 291.059V292.552H1414.74V294.79H1413.44V292.552H1411.48V291.059H1413.44V288.821H1414.74V291.059H1416.69Z" fill="white"/>
<path d="M1416.69 308.965V310.457H1414.74V312.696H1413.44V310.457H1411.48V308.965H1413.44V306.727H1414.74V308.965H1416.69Z" fill="white"/>
<path d="M1416.69 326.871V328.363H1414.74V330.601H1413.44V328.363H1411.48V326.871H1413.44V324.632H1414.74V326.871H1416.69Z" fill="white"/>
<path d="M1416.69 344.776V346.268H1414.74V348.507H1413.44V346.268H1411.48V344.776H1413.44V342.538H1414.74V344.776H1416.69Z" fill="white"/>
<path d="M1416.69 362.682V364.174H1414.74V366.412H1413.44V364.174H1411.48V362.682H1413.44V360.444H1414.74V362.682H1416.69Z" fill="white"/>
<path d="M1416.69 380.588V382.08H1414.74V384.318H1413.44V382.08H1411.48V380.588H1413.44V378.35H1414.74V380.588H1416.69Z" fill="white"/>
<path d="M1416.69 398.493V399.985H1414.74V402.223H1413.44V399.985H1411.48V398.493H1413.44V396.255H1414.74V398.493H1416.69Z" fill="white"/>
<path d="M1416.69 416.399V417.891H1414.74V420.129H1413.44V417.891H1411.48V416.399H1413.44V414.161H1414.74V416.399H1416.69Z" fill="white"/>
<path d="M1416.69 434.304V435.796H1414.74V438.035H1413.44V435.796H1411.48V434.304H1413.44V432.066H1414.74V434.304H1416.69Z" fill="white"/>
<path d="M1416.69 452.21V453.702H1414.74V455.94H1413.44V453.702H1411.48V452.21H1413.44V449.972H1414.74V452.21H1416.69Z" fill="white"/>
<path d="M1416.69 470.116V471.608H1414.74V473.846H1413.44V471.608H1411.48V470.116H1413.44V467.877H1414.74V470.116H1416.69Z" fill="white"/>
<path d="M1416.69 488.021V489.513H1414.74V491.751H1413.44V489.513H1411.48V488.021H1413.44V485.783H1414.74V488.021H1416.69Z" fill="white"/>
<path d="M1401.07 147.815V149.307H1399.12V151.545H1397.81V149.307H1395.86V147.815H1397.81V145.577H1399.12V147.815H1401.07Z" fill="white"/>
<path d="M1401.07 165.721V167.213H1399.12V169.451H1397.81V167.213H1395.86V165.721H1397.81V163.482H1399.12V165.721H1401.07Z" fill="white"/>
<path d="M1401.07 183.626V185.118H1399.12V187.356H1397.81V185.118H1395.86V183.626H1397.81V181.388H1399.12V183.626H1401.07Z" fill="white"/>
<path d="M1401.07 201.532V203.024H1399.12V205.262H1397.81V203.024H1395.86V201.532H1397.81V199.293H1399.12V201.532H1401.07Z" fill="white"/>
<path d="M1401.07 219.437V220.93H1399.12V223.168H1397.81V220.93H1395.86V219.437H1397.81V217.199H1399.12V219.437H1401.07Z" fill="white"/>
<path d="M1401.07 237.343V238.835H1399.12V241.073H1397.81V238.835H1395.86V237.343H1397.81V235.104H1399.12V237.343H1401.07Z" fill="white"/>
<path d="M1401.07 255.248V256.741H1399.12V258.979H1397.81V256.741H1395.86V255.248H1397.81V253.01H1399.12V255.248H1401.07Z" fill="white"/>
<path d="M1401.07 273.154V274.646H1399.12V276.885H1397.81V274.646H1395.86V273.154H1397.81V270.916H1399.12V273.154H1401.07Z" fill="white"/>
<path d="M1401.07 291.059V292.552H1399.12V294.79H1397.81V292.552H1395.86V291.059H1397.81V288.821H1399.12V291.059H1401.07Z" fill="white"/>
<path d="M1401.07 308.965V310.457H1399.12V312.696H1397.81V310.457H1395.86V308.965H1397.81V306.727H1399.12V308.965H1401.07Z" fill="white"/>
<path d="M1401.07 326.871V328.363H1399.12V330.601H1397.81V328.363H1395.86V326.871H1397.81V324.632H1399.12V326.871H1401.07Z" fill="white"/>
<path d="M1401.07 344.776V346.268H1399.12V348.507H1397.81V346.268H1395.86V344.776H1397.81V342.538H1399.12V344.776H1401.07Z" fill="white"/>
<path d="M1401.07 362.682V364.174H1399.12V366.412H1397.81V364.174H1395.86V362.682H1397.81V360.444H1399.12V362.682H1401.07Z" fill="white"/>
<path d="M1401.07 380.588V382.08H1399.12V384.318H1397.81V382.08H1395.86V380.588H1397.81V378.35H1399.12V380.588H1401.07Z" fill="white"/>
<path d="M1401.07 398.493V399.985H1399.12V402.223H1397.81V399.985H1395.86V398.493H1397.81V396.255H1399.12V398.493H1401.07Z" fill="white"/>
<path d="M1401.07 416.399V417.891H1399.12V420.129H1397.81V417.891H1395.86V416.399H1397.81V414.161H1399.12V416.399H1401.07Z" fill="white"/>
<path d="M1401.07 434.304V435.796H1399.12V438.035H1397.81V435.796H1395.86V434.304H1397.81V432.066H1399.12V434.304H1401.07Z" fill="white"/>
<path d="M1401.07 452.21V453.702H1399.12V455.94H1397.81V453.702H1395.86V452.21H1397.81V449.972H1399.12V452.21H1401.07Z" fill="white"/>
<path d="M1401.07 470.116V471.608H1399.12V473.846H1397.81V471.608H1395.86V470.116H1397.81V467.877H1399.12V470.116H1401.07Z" fill="white"/>
<path d="M1401.07 488.021V489.513H1399.12V491.751H1397.81V489.513H1395.86V488.021H1397.81V485.783H1399.12V488.021H1401.07Z" fill="white"/>
<path d="M1385.45 147.815V149.307H1383.5V151.545H1382.19V149.307H1380.24V147.815H1382.19V145.577H1383.5V147.815H1385.45Z" fill="white"/>
<path d="M1385.45 165.721V167.213H1383.5V169.451H1382.19V167.213H1380.24V165.721H1382.19V163.482H1383.5V165.721H1385.45Z" fill="white"/>
<path d="M1385.45 183.626V185.118H1383.5V187.356H1382.19V185.118H1380.24V183.626H1382.19V181.388H1383.5V183.626H1385.45Z" fill="white"/>
<path d="M1385.45 201.532V203.024H1383.5V205.262H1382.19V203.024H1380.24V201.532H1382.19V199.293H1383.5V201.532H1385.45Z" fill="white"/>
<path d="M1385.45 219.437V220.93H1383.5V223.168H1382.19V220.93H1380.24V219.437H1382.19V217.199H1383.5V219.437H1385.45Z" fill="white"/>
<path d="M1385.45 237.343V238.835H1383.5V241.073H1382.19V238.835H1380.24V237.343H1382.19V235.104H1383.5V237.343H1385.45Z" fill="white"/>
<path d="M1385.45 255.248V256.741H1383.5V258.979H1382.19V256.741H1380.24V255.248H1382.19V253.01H1383.5V255.248H1385.45Z" fill="white"/>
<path d="M1385.45 273.154V274.646H1383.5V276.885H1382.19V274.646H1380.24V273.154H1382.19V270.916H1383.5V273.154H1385.45Z" fill="white"/>
<path d="M1385.45 291.059V292.552H1383.5V294.79H1382.19V292.552H1380.24V291.059H1382.19V288.821H1383.5V291.059H1385.45Z" fill="white"/>
<path d="M1385.45 308.965V310.457H1383.5V312.696H1382.19V310.457H1380.24V308.965H1382.19V306.727H1383.5V308.965H1385.45Z" fill="white"/>
<path d="M1385.45 326.871V328.363H1383.5V330.601H1382.19V328.363H1380.24V326.871H1382.19V324.632H1383.5V326.871H1385.45Z" fill="white"/>
<path d="M1385.45 344.776V346.268H1383.5V348.507H1382.19V346.268H1380.24V344.776H1382.19V342.538H1383.5V344.776H1385.45Z" fill="white"/>
<path d="M1385.45 362.682V364.174H1383.5V366.412H1382.19V364.174H1380.24V362.682H1382.19V360.444H1383.5V362.682H1385.45Z" fill="white"/>
<path d="M1385.45 380.588V382.08H1383.5V384.318H1382.19V382.08H1380.24V380.588H1382.19V378.35H1383.5V380.588H1385.45Z" fill="white"/>
<path d="M1385.45 398.493V399.985H1383.5V402.223H1382.19V399.985H1380.24V398.493H1382.19V396.255H1383.5V398.493H1385.45Z" fill="white"/>
<path d="M1385.45 416.399V417.891H1383.5V420.129H1382.19V417.891H1380.24V416.399H1382.19V414.161H1383.5V416.399H1385.45Z" fill="white"/>
<path d="M1385.45 434.304V435.796H1383.5V438.035H1382.19V435.796H1380.24V434.304H1382.19V432.066H1383.5V434.304H1385.45Z" fill="white"/>
<path d="M1385.45 452.21V453.702H1383.5V455.94H1382.19V453.702H1380.24V452.21H1382.19V449.972H1383.5V452.21H1385.45Z" fill="white"/>
<path d="M1385.45 470.116V471.608H1383.5V473.846H1382.19V471.608H1380.24V470.116H1382.19V467.877H1383.5V470.116H1385.45Z" fill="white"/>
<path d="M1385.45 488.021V489.513H1383.5V491.751H1382.19V489.513H1380.24V488.021H1382.19V485.783H1383.5V488.021H1385.45Z" fill="white"/>
<path d="M1369.83 147.815V149.307H1367.88V151.545H1366.57V149.307H1364.62V147.815H1366.57V145.577H1367.88V147.815H1369.83Z" fill="white"/>
<path d="M1369.83 165.721V167.213H1367.88V169.451H1366.57V167.213H1364.62V165.721H1366.57V163.482H1367.88V165.721H1369.83Z" fill="white"/>
<path d="M1369.83 183.626V185.118H1367.88V187.356H1366.57V185.118H1364.62V183.626H1366.57V181.388H1367.88V183.626H1369.83Z" fill="white"/>
<path d="M1369.83 201.532V203.024H1367.88V205.262H1366.57V203.024H1364.62V201.532H1366.57V199.293H1367.88V201.532H1369.83Z" fill="white"/>
<path d="M1369.83 219.437V220.93H1367.88V223.168H1366.57V220.93H1364.62V219.437H1366.57V217.199H1367.88V219.437H1369.83Z" fill="white"/>
<path d="M1369.83 237.343V238.835H1367.88V241.073H1366.57V238.835H1364.62V237.343H1366.57V235.104H1367.88V237.343H1369.83Z" fill="white"/>
<path d="M1369.83 255.248V256.741H1367.88V258.979H1366.57V256.741H1364.62V255.248H1366.57V253.01H1367.88V255.248H1369.83Z" fill="white"/>
<path d="M1369.83 273.154V274.646H1367.88V276.885H1366.57V274.646H1364.62V273.154H1366.57V270.916H1367.88V273.154H1369.83Z" fill="white"/>
<path d="M1369.83 291.059V292.552H1367.88V294.79H1366.57V292.552H1364.62V291.059H1366.57V288.821H1367.88V291.059H1369.83Z" fill="white"/>
<path d="M1369.83 308.965V310.457H1367.88V312.696H1366.57V310.457H1364.62V308.965H1366.57V306.727H1367.88V308.965H1369.83Z" fill="white"/>
<path d="M1369.83 326.871V328.363H1367.88V330.601H1366.57V328.363H1364.62V326.871H1366.57V324.632H1367.88V326.871H1369.83Z" fill="white"/>
<path d="M1369.83 344.776V346.268H1367.88V348.507H1366.57V346.268H1364.62V344.776H1366.57V342.538H1367.88V344.776H1369.83Z" fill="white"/>
<path d="M1369.83 362.682V364.174H1367.88V366.412H1366.57V364.174H1364.62V362.682H1366.57V360.444H1367.88V362.682H1369.83Z" fill="white"/>
<path d="M1369.83 380.588V382.08H1367.88V384.318H1366.57V382.08H1364.62V380.588H1366.57V378.35H1367.88V380.588H1369.83Z" fill="white"/>
<path d="M1369.83 398.493V399.985H1367.88V402.223H1366.57V399.985H1364.62V398.493H1366.57V396.255H1367.88V398.493H1369.83Z" fill="white"/>
<path d="M1369.83 416.399V417.891H1367.88V420.129H1366.57V417.891H1364.62V416.399H1366.57V414.161H1367.88V416.399H1369.83Z" fill="white"/>
<path d="M1369.83 434.304V435.796H1367.88V438.035H1366.57V435.796H1364.62V434.304H1366.57V432.066H1367.88V434.304H1369.83Z" fill="white"/>
<path d="M1369.83 452.21V453.702H1367.88V455.94H1366.57V453.702H1364.62V452.21H1366.57V449.972H1367.88V452.21H1369.83Z" fill="white"/>
<path d="M1369.83 470.116V471.608H1367.88V473.846H1366.57V471.608H1364.62V470.116H1366.57V467.877H1367.88V470.116H1369.83Z" fill="white"/>
<path d="M1369.83 488.021V489.513H1367.88V491.751H1366.57V489.513H1364.62V488.021H1366.57V485.783H1367.88V488.021H1369.83Z" fill="white"/>
<path d="M1354.21 147.815V149.307H1352.25V151.545H1350.95V149.307H1349V147.815H1350.95V145.577H1352.25V147.815H1354.21Z" fill="white"/>
<path d="M1354.21 165.721V167.213H1352.25V169.451H1350.95V167.213H1349V165.721H1350.95V163.482H1352.25V165.721H1354.21Z" fill="white"/>
<path d="M1354.21 183.626V185.118H1352.25V187.356H1350.95V185.118H1349V183.626H1350.95V181.388H1352.25V183.626H1354.21Z" fill="white"/>
<path d="M1354.21 201.532V203.024H1352.25V205.262H1350.95V203.024H1349V201.532H1350.95V199.293H1352.25V201.532H1354.21Z" fill="white"/>
<path d="M1354.21 219.437V220.93H1352.25V223.168H1350.95V220.93H1349V219.437H1350.95V217.199H1352.25V219.437H1354.21Z" fill="white"/>
<path d="M1354.21 237.343V238.835H1352.25V241.073H1350.95V238.835H1349V237.343H1350.95V235.104H1352.25V237.343H1354.21Z" fill="white"/>
<path d="M1354.21 255.248V256.741H1352.25V258.979H1350.95V256.741H1349V255.248H1350.95V253.01H1352.25V255.248H1354.21Z" fill="white"/>
<path d="M1354.21 273.154V274.646H1352.25V276.885H1350.95V274.646H1349V273.154H1350.95V270.916H1352.25V273.154H1354.21Z" fill="white"/>
<path d="M1354.21 291.059V292.552H1352.25V294.79H1350.95V292.552H1349V291.059H1350.95V288.821H1352.25V291.059H1354.21Z" fill="white"/>
<path d="M1354.21 308.965V310.457H1352.25V312.696H1350.95V310.457H1349V308.965H1350.95V306.727H1352.25V308.965H1354.21Z" fill="white"/>
<path d="M1354.21 326.871V328.363H1352.25V330.601H1350.95V328.363H1349V326.871H1350.95V324.632H1352.25V326.871H1354.21Z" fill="white"/>
<path d="M1354.21 344.776V346.268H1352.25V348.507H1350.95V346.268H1349V344.776H1350.95V342.538H1352.25V344.776H1354.21Z" fill="white"/>
<path d="M1354.21 362.682V364.174H1352.25V366.412H1350.95V364.174H1349V362.682H1350.95V360.444H1352.25V362.682H1354.21Z" fill="white"/>
<path d="M1354.21 380.588V382.08H1352.25V384.318H1350.95V382.08H1349V380.588H1350.95V378.35H1352.25V380.588H1354.21Z" fill="white"/>
<path d="M1354.21 398.493V399.985H1352.25V402.223H1350.95V399.985H1349V398.493H1350.95V396.255H1352.25V398.493H1354.21Z" fill="white"/>
<path d="M1354.21 416.399V417.891H1352.25V420.129H1350.95V417.891H1349V416.399H1350.95V414.161H1352.25V416.399H1354.21Z" fill="white"/>
<path d="M1354.21 434.304V435.796H1352.25V438.035H1350.95V435.796H1349V434.304H1350.95V432.066H1352.25V434.304H1354.21Z" fill="white"/>
<path d="M1354.21 452.21V453.702H1352.25V455.94H1350.95V453.702H1349V452.21H1350.95V449.972H1352.25V452.21H1354.21Z" fill="white"/>
<path d="M1354.21 470.116V471.608H1352.25V473.846H1350.95V471.608H1349V470.116H1350.95V467.877H1352.25V470.116H1354.21Z" fill="white"/>
<path d="M1354.21 488.021V489.513H1352.25V491.751H1350.95V489.513H1349V488.021H1350.95V485.783H1352.25V488.021H1354.21Z" fill="white"/>
</g>
<defs>
<filter id="filter0_d_1_3" x="-4" y="0" width="1928" height="1008" filterUnits="userSpaceOnUse" color-interpolation-filters="sRGB">
<feFlood flood-opacity="0" result="BackgroundImageFix"/>
<feColorMatrix in="SourceAlpha" type="matrix" values="0 0 0 0 0 0 0 0 0 0 0 0 0 0 0 0 0 0 127 0" result="hardAlpha"/>
<feOffset dy="4"/>
<feGaussianBlur stdDeviation="2"/>
<feComposite in2="hardAlpha" operator="out"/>
<feColorMatrix type="matrix" values="0 0 0 0 0 0 0 0 0 0 0 0 0 0 0 0 0 0 0.25 0"/>
<feBlend mode="normal" in2="BackgroundImageFix" result="effect1_dropShadow_1_3"/>
<feBlend mode="normal" in="SourceGraphic" in2="effect1_dropShadow_1_3" result="shape"/>
</filter>
<linearGradient id="paint0_linear_1_3" x1="-32.5" y1="-32.9999" x2="2069" y2="1061.5" gradientUnits="userSpaceOnUse">
<stop stop-color="#1E3C72"/>
<stop offset="1" stop-color="#2A5298"/>
</linearGradient>
<linearGradient id="paint1_linear_1_3" x1="-32.5" y1="-32.9999" x2="2069" y2="1061.5" gradientUnits="userSpaceOnUse">
<stop stop-color="#1E3C72"/>
<stop offset="1" stop-color="#2A5298"/>
</linearGradient>
</defs>
</svg>
